<svg width="111" height="39" viewBox="0 0 111 39" fill="none" xmlns="http://www.w3.org/2000/svg">
<path d="M18.7969 32.8008C19.0247 32.8008 19.1875 32.8171 19.2852 32.8496C19.3828 32.8822 19.4642 32.8984 19.5293 32.8984C19.8548 32.8984 20.2699 32.6706 20.7744 32.2148C21.2952 31.7428 21.7103 31.3848 22.0195 31.1406C22.6868 30.9941 23.224 30.571 23.6309 29.8711C24.054 29.1549 24.526 28.5365 25.0469 28.0156C25.7142 27.3483 26.2513 26.7542 26.6582 26.2334C27.0814 25.6963 27.4395 25.4277 27.7324 25.4277C27.9928 25.4277 28.18 25.5498 28.2939 25.7939C28.4404 26.0869 28.5462 26.2904 28.6113 26.4043C28.5462 26.4694 28.5137 26.5671 28.5137 26.6973C28.5137 26.8438 28.4811 26.9577 28.416 27.0391C28.3509 27.1367 28.2533 27.2344 28.123 27.332C27.9928 27.4297 27.8789 27.5436 27.7812 27.6738L27.293 28.2598C26.8698 28.6829 26.471 29.2201 26.0967 29.8711C25.7223 30.5221 25.348 31.1406 24.9736 31.7266C24.6156 32.2962 24.2331 32.7031 23.8262 32.9473C22.9635 33.5007 22.2718 34.0866 21.751 34.7051C21.2464 35.3073 20.6849 35.7956 20.0664 36.1699C20.0013 36.1699 19.9606 36.1618 19.9443 36.1455C19.9281 36.1292 19.9036 36.1211 19.8711 36.1211C19.7246 36.1211 19.6188 36.1536 19.5537 36.2188C19.4886 36.2839 19.3991 36.3164 19.2852 36.3164C18.6829 36.0885 18.2028 35.8363 17.8447 35.5596C17.4867 35.2666 17.0228 34.64 16.4531 33.6797C16.3066 33.4355 16.1764 33.167 16.0625 32.874C15.9486 32.5485 15.8184 32.2637 15.6719 32.0195L15.0127 30.8232C14.8337 30.4977 14.7441 29.9525 14.7441 29.1875C14.7441 28.862 14.7767 28.3737 14.8418 27.7227C14.9069 27.0716 14.972 26.5508 15.0371 26.1602C14.5326 26.6647 14.0687 27.2913 13.6455 28.04C13.4339 28.3981 13.2305 28.748 13.0352 29.0898C12.8398 29.4316 12.6445 29.7572 12.4492 30.0664C11.9284 30.8639 11.3669 31.6533 10.7646 32.4346C10.1787 33.1833 9.8776 33.7611 9.86133 34.168C9.66602 34.3633 9.45443 34.6481 9.22656 35.0225C8.9987 35.3968 8.81966 35.7223 8.68945 35.999C8.57552 36.2594 8.57552 36.3327 8.68945 36.2188C8.23372 36.9674 7.57454 37.4964 6.71191 37.8057C5.84928 38.1149 5.04362 38.2695 4.29492 38.2695C4.14844 38.2533 4.00195 38.237 3.85547 38.2207C3.70898 38.2044 3.5625 38.1882 3.41602 38.1719C3.13932 38.1556 2.86263 38.0417 2.58594 37.8301L1.85352 37.293C1.33268 37.0326 0.974609 36.6257 0.779297 36.0723C0.583984 35.5189 0.486328 34.9167 0.486328 34.2656C0.893229 33.2402 1.12923 32.3206 1.19434 31.5068C1.25944 30.7093 1.44661 29.9199 1.75586 29.1387C2.21159 27.9342 2.85449 26.86 3.68457 25.916C4.51465 24.972 5.38542 24.1094 6.29688 23.3281C7.0293 22.7096 7.86751 22.0342 8.81152 21.3018C9.77181 20.5531 10.4635 19.9264 10.8867 19.4219C11.4076 19.3405 11.847 19.1859 12.2051 18.958C12.5794 18.7139 12.9538 18.486 13.3281 18.2744C13.7025 18.0628 14.1419 17.957 14.6465 17.957C15.3952 17.957 15.8346 18.0872 15.9648 18.3477C16.0951 18.6081 16.2904 18.9661 16.5508 19.4219C16.7624 18.8848 16.9251 18.3395 17.0391 17.7861C17.1042 17.5094 17.1774 17.2409 17.2588 16.9805C17.3564 16.7201 17.4622 16.4759 17.5762 16.248C17.7715 15.2389 18.1051 14.1647 18.5771 13.0254C19.0492 11.8861 19.5212 10.8363 19.9932 9.87598C20.3838 9.09473 20.7663 8.35417 21.1406 7.6543C21.5312 6.93815 21.7917 6.48242 21.9219 6.28711C22.4264 5.50586 22.9717 4.84668 23.5576 4.30957C24.1273 3.77246 24.6237 3.19466 25.0469 2.57617C25.3724 2.18555 25.6898 1.73796 25.999 1.2334C26.3245 0.680013 26.5768 0.346354 26.7559 0.232422C27.6673 0.476562 28.1475 0.834635 28.1963 1.30664C28.2451 1.77865 28.2695 2.31576 28.2695 2.91797C28.2695 3.4388 28.2207 3.95964 28.123 4.48047L26.4629 7.94727C26.0072 8.79362 25.5758 9.65625 25.1689 10.5352C24.762 11.4141 24.3796 12.3092 24.0215 13.2207C23.4193 14.3926 22.7601 15.418 22.0439 16.2969C21.6859 16.7363 21.3441 17.1921 21.0186 17.6641C20.7093 18.1361 20.4082 18.6243 20.1152 19.1289C20.0013 19.4707 19.8304 19.8044 19.6025 20.1299C19.4886 20.2926 19.3828 20.4554 19.2852 20.6182C19.1875 20.7646 19.0898 20.9193 18.9922 21.082L18.1133 23.1816C17.918 23.4421 17.8203 23.6862 17.8203 23.9141C17.8854 24.0605 17.918 24.1908 17.918 24.3047V24.5488C17.918 24.6953 17.918 24.8418 17.918 24.9883C17.918 25.1348 17.9098 25.2812 17.8936 25.4277C17.8773 25.5742 17.8691 25.7288 17.8691 25.8916C17.8691 26.0381 17.8691 26.1927 17.8691 26.3555C17.8691 28.0156 17.9342 29.6432 18.0645 31.2383C17.9993 31.3522 17.9668 31.4336 17.9668 31.4824C17.9668 31.7103 18.0889 31.9463 18.333 32.1904C18.5771 32.4183 18.7318 32.6217 18.7969 32.8008ZM14.1094 20.9355L12.8887 21.7168C12.6445 21.7982 12.319 22.0342 11.9121 22.4248L10.8867 23.377L9.86133 24.3047C9.63346 24.7279 9.32422 25.0859 8.93359 25.3789C8.54297 25.6719 8.21745 25.9974 7.95703 26.3555C7.59896 26.8112 7.24902 27.3483 6.90723 27.9668C6.56543 28.5853 6.41081 29.1061 6.44336 29.5293C6.36198 29.8223 6.27246 30.099 6.1748 30.3594C6.09342 30.6035 6.00391 30.8314 5.90625 31.043C5.71094 31.4499 5.61328 31.9219 5.61328 32.459C5.61328 32.8822 5.75163 33.1019 6.02832 33.1182C6.30501 33.1344 6.50846 33.1426 6.63867 33.1426C7.12695 32.8171 7.63965 32.3451 8.17676 31.7266C8.73014 31.0918 9.22656 30.4408 9.66602 29.7734C10.1217 29.1061 10.431 28.5527 10.5938 28.1133C10.9518 27.4948 11.3587 26.8356 11.8145 26.1357C12.2702 25.4359 12.7747 24.8092 13.3281 24.2559L14.5977 22.2051C14.6302 22.1237 14.6628 22.0505 14.6953 21.9854C14.7279 21.904 14.7604 21.8307 14.793 21.7656C14.8581 21.6517 14.8906 21.5052 14.8906 21.3262C14.8906 21.1146 14.8255 20.9193 14.6953 20.7402C14.5651 20.7402 14.4512 20.7646 14.3535 20.8135C14.2559 20.8623 14.1745 20.903 14.1094 20.9355ZM34.6172 12.5371L35.1055 12.6836C35.1706 12.765 35.2031 12.8626 35.2031 12.9766C35.2031 13.0579 35.252 13.1393 35.3496 13.2207C35.2845 13.5137 35.2275 13.8148 35.1787 14.124C35.1299 14.4333 35.1055 14.7344 35.1055 15.0273C35.1055 15.1413 35.1462 15.2552 35.2275 15.3691C35.3089 15.4831 35.3496 15.5807 35.3496 15.6621C35.1868 16.0365 35.0648 16.2643 34.9834 16.3457C34.902 16.4271 34.8613 16.5085 34.8613 16.5898C34.6986 16.6549 34.5765 16.7526 34.4951 16.8828C34.4137 17.013 34.2754 17.0781 34.0801 17.0781C34.015 17.1758 33.9417 17.249 33.8604 17.2979C33.7627 17.363 33.7057 17.4525 33.6895 17.5664C33.1523 17.7943 32.5664 17.778 31.9316 17.5176C31.7526 17.2083 31.5247 16.9967 31.248 16.8828C30.8249 16.2643 30.8086 15.5319 31.1992 14.6855C31.2643 14.5228 31.3376 14.3519 31.4189 14.1729C31.5003 13.9938 31.5736 13.8717 31.6387 13.8066C31.9805 13.5625 32.2409 13.3997 32.4199 13.3184C32.485 13.2858 32.5501 13.2533 32.6152 13.2207C32.6966 13.1719 32.7699 13.123 32.835 13.0742C32.9489 12.9928 33.1198 12.9115 33.3477 12.8301C33.4453 12.7975 33.5348 12.7812 33.6162 12.7812C33.7464 12.7812 33.8685 12.7487 33.9824 12.6836C34.0475 12.6673 34.1045 12.651 34.1533 12.6348C34.2184 12.6185 34.2754 12.6022 34.3242 12.5859C34.4544 12.5534 34.5521 12.5371 34.6172 12.5371ZM27.293 34.168L27.5371 34.2656C27.8301 34.1354 28.1882 34.0866 28.6113 34.1191C29.0508 34.1517 29.3926 34.0866 29.6367 33.9238C29.7995 33.7936 29.9134 33.696 29.9785 33.6309C30.0762 33.5332 30.1901 33.5007 30.3203 33.5332C30.8411 33.3379 31.2806 33.1426 31.6387 32.9473C32.013 32.752 32.4036 32.6055 32.8105 32.5078C33.071 32.4102 33.2988 32.2637 33.4941 32.0684C34.1615 31.8568 34.723 31.5557 35.1787 31.165C35.6507 30.7744 36.1634 30.3594 36.7168 29.9199C37.1725 29.6595 37.555 29.4316 37.8643 29.2363C38.1735 29.041 38.5072 28.7969 38.8652 28.5039C38.9466 28.3249 39.0361 28.2028 39.1338 28.1377C39.2152 28.0889 39.3047 27.9831 39.4023 27.8203C39.9883 27.8203 40.3138 28.0482 40.3789 28.5039C40.2161 28.862 39.9964 29.1549 39.7197 29.3828C39.4268 29.627 39.1745 29.8874 38.9629 30.1641C38.7025 30.3268 38.4909 30.4733 38.3281 30.6035C38.1654 30.7337 38.0026 30.929 37.8398 31.1895C37.8236 31.1895 37.7259 31.2627 37.5469 31.4092C37.3841 31.5557 37.2865 31.6289 37.2539 31.6289C36.9935 31.9382 36.7982 32.1253 36.668 32.1904C36.5378 32.2555 36.3099 32.4264 35.9844 32.7031C35.7728 33.0612 35.4798 33.3542 35.1055 33.582C34.4056 34.2493 33.665 34.8109 32.8838 35.2666C32.4769 35.4945 32.0944 35.7305 31.7363 35.9746C31.3783 36.2025 31.0365 36.4303 30.7109 36.6582C30.5482 36.7559 30.4342 36.8454 30.3691 36.9268C30.304 37.0081 30.1901 37.1139 30.0273 37.2441C29.8646 37.3743 29.6123 37.5046 29.2705 37.6348C28.9287 37.765 28.6276 37.8789 28.3672 37.9766C28.1556 38.1068 27.9766 38.2044 27.8301 38.2695C27.0977 38.3021 26.5443 38.1882 26.1699 37.9277C25.7467 37.6999 25.4212 37.5208 25.1934 37.3906C24.9655 37.2604 24.7702 37.0488 24.6074 36.7559C24.2331 36.5768 24.0133 36.2757 23.9482 35.8525C23.9157 35.6247 23.875 35.4049 23.8262 35.1934C23.7773 34.9818 23.7285 34.7702 23.6797 34.5586C23.6471 34.3958 23.6146 34.2087 23.582 33.9971C23.5495 33.7855 23.5495 33.5658 23.582 33.3379C23.6634 32.9635 23.7122 32.5811 23.7285 32.1904C23.7448 31.8324 23.8262 31.4824 23.9727 31.1406C24.1191 30.8151 24.2087 30.457 24.2412 30.0664C24.2738 29.6758 24.3633 29.3177 24.5098 28.9922C24.7214 28.6667 24.8109 28.4876 24.7783 28.4551C24.762 28.4388 24.7702 28.39 24.8027 28.3086L25.0225 28.0156C25.0713 27.9505 25.1445 27.8366 25.2422 27.6738L25.5352 26.9414C25.6816 26.6647 25.8281 26.4368 25.9746 26.2578C26.1211 26.0625 26.2513 25.7858 26.3652 25.4277C26.4466 25.1999 26.5361 25.0208 26.6338 24.8906C26.6989 24.8092 26.7559 24.7279 26.8047 24.6465C26.8698 24.5488 26.9349 24.4512 27 24.3535C27.0814 24.1908 27.1628 23.9873 27.2441 23.7432C27.2767 23.6292 27.3092 23.5234 27.3418 23.4258C27.3906 23.3118 27.4395 23.1979 27.4883 23.084C27.5859 22.8236 27.708 22.5632 27.8545 22.3027C28.001 22.0423 28.1556 21.7819 28.3184 21.5215C28.4486 21.2611 28.5625 21.0658 28.6602 20.9355C28.7578 20.8053 28.9531 20.724 29.2461 20.6914C29.3926 20.6589 29.5391 20.667 29.6855 20.7158C29.8646 20.7646 30.0273 20.7565 30.1738 20.6914C30.597 20.4961 30.89 20.3984 31.0527 20.3984C31.2155 20.3984 31.3294 20.3496 31.3945 20.252C31.7363 20.2682 31.9967 20.3822 32.1758 20.5938C32.3548 20.7891 32.5501 20.9844 32.7617 21.1797C32.5664 22.1237 32.3467 22.848 32.1025 23.3525C31.8584 23.8571 31.5898 24.3861 31.2969 24.9395C31.1341 25.1999 30.9714 25.4928 30.8086 25.8184C30.6458 26.1439 30.4993 26.4368 30.3691 26.6973C30.2064 27.0553 30.0355 27.3727 29.8564 27.6494C29.6449 27.9749 29.4902 28.2923 29.3926 28.6016L29.1729 29.0654C29.0752 29.2607 29.002 29.4154 28.9531 29.5293C28.9206 29.6432 28.8799 29.7572 28.8311 29.8711C28.7985 29.9688 28.7497 30.0583 28.6846 30.1396C28.6195 30.221 28.5625 30.3105 28.5137 30.4082C28.4648 30.4896 28.416 30.571 28.3672 30.6523C28.2695 30.8477 28.1719 31.043 28.0742 31.2383C27.9766 31.4336 27.8952 31.6452 27.8301 31.873C27.6673 32.2311 27.5697 32.4671 27.5371 32.5811C27.5208 32.6136 27.5046 32.6543 27.4883 32.7031C27.472 32.7357 27.4557 32.7682 27.4395 32.8008C27.3743 33.1589 27.2767 33.4518 27.1465 33.6797C27.0163 33.9076 27.0651 34.0703 27.293 34.168ZM43.8457 20.1055C44.1061 20.0404 44.2526 20.0322 44.2852 20.0811C44.3177 20.1299 44.3828 20.1543 44.4805 20.1543C44.6107 20.3333 44.627 20.5938 44.5293 20.9355C44.4154 21.4564 44.1875 21.9528 43.8457 22.4248C43.5039 22.8968 43.2435 23.3607 43.0645 23.8164C42.9505 24.0443 42.8447 24.2477 42.7471 24.4268C42.6657 24.5895 42.5924 24.736 42.5273 24.8662C42.4622 24.9801 42.3971 25.1022 42.332 25.2324C42.2832 25.3626 42.2344 25.4928 42.1855 25.623C42.0228 25.9811 41.86 26.3799 41.6973 26.8193C41.5345 27.2588 41.3717 27.7064 41.209 28.1621L40.916 28.7969C40.7533 29.1549 40.623 29.4723 40.5254 29.749C40.4277 30.0257 40.3626 30.3757 40.3301 30.7988V32.1172C40.3626 32.3451 40.387 32.5811 40.4033 32.8252C40.4196 33.0693 40.4359 33.3216 40.4521 33.582C40.4847 34.1191 40.5905 34.5586 40.7695 34.9004C41.1764 34.7051 41.6159 34.3714 42.0879 33.8994C42.3158 33.6715 42.5273 33.4681 42.7227 33.2891C42.9342 33.0938 43.1296 32.931 43.3086 32.8008C43.5365 32.4753 43.7887 32.1742 44.0654 31.8975C44.3584 31.6045 44.5944 31.2871 44.7734 30.9453C45.1641 30.6198 45.4245 30.1966 45.5547 29.6758C45.7174 29.4967 45.8721 29.2933 46.0186 29.0654C46.0999 28.9515 46.1732 28.8457 46.2383 28.748C46.3197 28.6341 46.401 28.5202 46.4824 28.4062C46.7266 28.0645 46.9382 27.6576 47.1172 27.1855C47.2148 26.9089 47.2555 26.6484 47.2393 26.4043C47.223 26.2741 47.2148 26.1439 47.2148 26.0137C47.2148 25.8835 47.2148 25.7533 47.2148 25.623C47.2311 25.3464 47.2799 25.0697 47.3613 24.793C47.4264 24.5651 47.4427 24.3047 47.4102 24.0117C47.459 23.9303 47.516 23.792 47.5811 23.5967C47.6462 23.4014 47.7031 23.2467 47.752 23.1328C47.8171 22.9701 47.9391 22.791 48.1182 22.5957C48.2972 22.4004 48.4681 22.2214 48.6309 22.0586C48.7448 21.9121 48.8506 21.7656 48.9482 21.6191C49.0622 21.4727 49.168 21.3262 49.2656 21.1797C49.4447 20.903 49.6888 20.6751 49.998 20.4961L50.584 20.252C50.8281 20.138 51.0234 20.0729 51.1699 20.0566C51.4141 20.0241 51.7396 19.9508 52.1465 19.8369C52.5697 19.7067 52.8952 19.6823 53.123 19.7637C53.2533 19.7799 53.3753 19.8532 53.4893 19.9834C53.6032 20.0811 53.7415 20.0729 53.9043 19.959C54.1647 20.2357 54.2949 20.4798 54.2949 20.6914C54.2949 20.8867 54.2298 21.0983 54.0996 21.3262C53.888 21.6354 53.7741 21.8226 53.7578 21.8877C53.7415 21.9202 53.7253 21.9609 53.709 22.0098C53.6927 22.0423 53.6764 22.0749 53.6602 22.1074C53.3672 22.5957 53.0742 23.1328 52.7812 23.7188C52.4883 24.3047 52.2441 24.8581 52.0488 25.3789C52.3743 25.5417 52.8057 25.6149 53.3428 25.5986C53.8799 25.5824 54.36 25.5254 54.7832 25.4277C54.8483 25.4115 54.9053 25.3952 54.9541 25.3789C55.0192 25.3626 55.0843 25.3464 55.1494 25.3301C55.2145 25.3138 55.2715 25.2975 55.3203 25.2812C55.3854 25.265 55.4505 25.2487 55.5156 25.2324C55.7272 25.1673 56.0446 25.1104 56.4678 25.0615C56.8096 25.0127 57.127 24.9232 57.4199 24.793C57.7943 24.5977 58.0221 24.5 58.1035 24.5C58.2174 24.5 58.3314 24.4674 58.4453 24.4023C58.7546 24.321 59.0394 24.2396 59.2998 24.1582C59.5602 24.0768 59.7962 23.9954 60.0078 23.9141C60.1217 23.8815 60.2357 23.849 60.3496 23.8164C60.4635 23.7676 60.5775 23.7106 60.6914 23.6455C60.9193 23.5153 61.1309 23.4909 61.3262 23.5723C61.3913 23.6374 61.4157 23.7513 61.3994 23.9141C61.3831 24.0605 61.4238 24.2233 61.5215 24.4023C61.2611 24.6139 61.0658 24.7116 60.9355 24.6953C60.6751 24.8255 60.4066 24.9476 60.1299 25.0615C59.8532 25.1755 59.5602 25.2894 59.251 25.4033L57.5176 26.0137C57.127 26.1927 56.8665 26.266 56.7363 26.2334C56.6224 26.2008 56.4759 26.2253 56.2969 26.3066C55.7598 26.5508 55.2959 26.7298 54.9053 26.8438C54.5798 26.9414 54.2949 27.0553 54.0508 27.1855C53.9206 27.2832 53.8311 27.3564 53.7822 27.4053C53.7008 27.4867 53.5951 27.5436 53.4648 27.5762C52.9115 27.6738 52.4395 27.7145 52.0488 27.6982C51.6419 27.682 51.2188 27.7878 50.7793 28.0156C50.6816 28.2109 50.5514 28.4307 50.3887 28.6748C50.2259 28.9189 50.0469 29.1224 49.8516 29.2852C49.6888 29.6107 49.5179 29.8874 49.3389 30.1152C49.1598 30.3431 48.9564 30.5872 48.7285 30.8477C48.4355 31.1081 48.1426 31.3848 47.8496 31.6777C47.5566 31.9707 47.2799 32.2474 47.0195 32.5078C46.5638 33.2565 46.0348 33.9482 45.4326 34.583C44.8304 35.2178 44.2038 35.8444 43.5527 36.4629C43.39 36.4792 43.2354 36.5524 43.0889 36.6826C42.9749 36.7803 42.8203 36.8698 42.625 36.9512C42.4134 37.0163 42.2425 37.0651 42.1123 37.0977C41.9984 37.1465 41.9251 37.179 41.8926 37.1953C41.8275 37.2116 41.7298 37.2604 41.5996 37.3418C41.3717 37.4395 41.2008 37.529 41.0869 37.6104C40.9893 37.6755 40.916 37.7324 40.8672 37.7812C40.7858 37.8464 40.6882 37.8789 40.5742 37.8789C40.4928 37.8789 40.4115 37.944 40.3301 38.0742C39.9232 37.9928 39.679 38.0417 39.5977 38.2207C39.4674 38.2207 39.3372 38.237 39.207 38.2695C39.1094 38.3021 38.9954 38.3021 38.8652 38.2695C38.7676 38.1882 38.6943 38.1149 38.6455 38.0498C38.5804 37.9521 38.5234 37.8789 38.4746 37.8301C37.9863 37.6348 37.6934 37.4232 37.5957 37.1953C37.4818 36.9512 37.3353 36.7721 37.1562 36.6582C37.0098 36.3164 36.9202 35.9258 36.8877 35.4863C36.8714 35.291 36.8551 35.0957 36.8389 34.9004C36.8226 34.6888 36.7982 34.4772 36.7656 34.2656C36.7493 34.2005 36.7331 34.1436 36.7168 34.0947C36.7005 34.0296 36.6842 33.9645 36.668 33.8994C36.6517 33.8343 36.6354 33.7773 36.6191 33.7285C36.6029 33.6634 36.5866 33.5983 36.5703 33.5332C36.5052 33.2728 36.4808 33.0124 36.4971 32.752C36.5133 32.5078 36.4727 32.2474 36.375 31.9707C36.5378 31.4499 36.554 30.9453 36.4238 30.457C36.4889 30.2292 36.5703 29.9281 36.668 29.5537C36.7656 29.1794 36.8307 28.862 36.8633 28.6016C36.9447 27.918 37.0667 27.3483 37.2295 26.8926C37.4085 26.4368 37.6771 25.8672 38.0352 25.1836C38.1654 24.8906 38.3118 24.5977 38.4746 24.3047C38.556 24.1582 38.6374 24.0117 38.7188 23.8652C38.8001 23.7025 38.8815 23.5397 38.9629 23.377C39.0443 23.2142 39.1094 23.084 39.1582 22.9863C39.2233 22.8724 39.264 22.791 39.2803 22.7422C39.3454 22.6283 39.4512 22.4492 39.5977 22.2051L39.8418 21.7656C39.9395 21.6029 40.0534 21.4564 40.1836 21.3262C40.444 21.0658 40.6882 20.8623 40.916 20.7158C41.1439 20.5693 41.4206 20.4147 41.7461 20.252C42.0553 20.3171 42.4541 20.2601 42.9424 20.0811C43.4307 19.902 43.7318 19.9102 43.8457 20.1055ZM66.7949 12.5371L67.2832 12.6836C67.3483 12.765 67.3809 12.8626 67.3809 12.9766C67.3809 13.0579 67.4297 13.1393 67.5273 13.2207C67.4622 13.5137 67.4053 13.8148 67.3564 14.124C67.3076 14.4333 67.2832 14.7344 67.2832 15.0273C67.2832 15.1413 67.3239 15.2552 67.4053 15.3691C67.4867 15.4831 67.5273 15.5807 67.5273 15.6621C67.3646 16.0365 67.2425 16.2643 67.1611 16.3457C67.0798 16.4271 67.0391 16.5085 67.0391 16.5898C66.8763 16.6549 66.7542 16.7526 66.6729 16.8828C66.5915 17.013 66.4531 17.0781 66.2578 17.0781C66.1927 17.1758 66.1195 17.249 66.0381 17.2979C65.9404 17.363 65.8835 17.4525 65.8672 17.5664C65.3301 17.7943 64.7441 17.778 64.1094 17.5176C63.9303 17.2083 63.7025 16.9967 63.4258 16.8828C63.0026 16.2643 62.9863 15.5319 63.377 14.6855C63.4421 14.5228 63.5153 14.3519 63.5967 14.1729C63.6781 13.9938 63.7513 13.8717 63.8164 13.8066C64.1582 13.5625 64.4186 13.3997 64.5977 13.3184C64.6628 13.2858 64.7279 13.2533 64.793 13.2207C64.8743 13.1719 64.9476 13.123 65.0127 13.0742C65.1266 12.9928 65.2975 12.9115 65.5254 12.8301C65.623 12.7975 65.7126 12.7812 65.7939 12.7812C65.9242 12.7812 66.0462 12.7487 66.1602 12.6836C66.2253 12.6673 66.2822 12.651 66.3311 12.6348C66.3962 12.6185 66.4531 12.6022 66.502 12.5859C66.6322 12.5534 66.7298 12.5371 66.7949 12.5371ZM59.4707 34.168L59.7148 34.2656C60.0078 34.1354 60.3659 34.0866 60.7891 34.1191C61.2285 34.1517 61.5703 34.0866 61.8145 33.9238C61.9772 33.7936 62.0911 33.696 62.1562 33.6309C62.2539 33.5332 62.3678 33.5007 62.498 33.5332C63.0189 33.3379 63.4583 33.1426 63.8164 32.9473C64.1908 32.752 64.5814 32.6055 64.9883 32.5078C65.2487 32.4102 65.4766 32.2637 65.6719 32.0684C66.3392 31.8568 66.9007 31.5557 67.3564 31.165C67.8285 30.7744 68.3411 30.3594 68.8945 29.9199C69.3503 29.6595 69.7327 29.4316 70.042 29.2363C70.3512 29.041 70.6849 28.7969 71.043 28.5039C71.1243 28.3249 71.2139 28.2028 71.3115 28.1377C71.3929 28.0889 71.4824 27.9831 71.5801 27.8203C72.166 27.8203 72.4915 28.0482 72.5566 28.5039C72.3939 28.862 72.1742 29.1549 71.8975 29.3828C71.6045 29.627 71.3522 29.8874 71.1406 30.1641C70.8802 30.3268 70.6686 30.4733 70.5059 30.6035C70.3431 30.7337 70.1803 30.929 70.0176 31.1895C70.0013 31.1895 69.9036 31.2627 69.7246 31.4092C69.5618 31.5557 69.4642 31.6289 69.4316 31.6289C69.1712 31.9382 68.9759 32.1253 68.8457 32.1904C68.7155 32.2555 68.4876 32.4264 68.1621 32.7031C67.9505 33.0612 67.6576 33.3542 67.2832 33.582C66.5833 34.2493 65.8428 34.8109 65.0615 35.2666C64.6546 35.4945 64.2721 35.7305 63.9141 35.9746C63.556 36.2025 63.2142 36.4303 62.8887 36.6582C62.7259 36.7559 62.612 36.8454 62.5469 36.9268C62.4818 37.0081 62.3678 37.1139 62.2051 37.2441C62.0423 37.3743 61.79 37.5046 61.4482 37.6348C61.1064 37.765 60.8053 37.8789 60.5449 37.9766C60.3333 38.1068 60.1543 38.2044 60.0078 38.2695C59.2754 38.3021 58.722 38.1882 58.3477 37.9277C57.9245 37.6999 57.599 37.5208 57.3711 37.3906C57.1432 37.2604 56.9479 37.0488 56.7852 36.7559C56.4108 36.5768 56.1911 36.2757 56.126 35.8525C56.0934 35.6247 56.0527 35.4049 56.0039 35.1934C55.9551 34.9818 55.9062 34.7702 55.8574 34.5586C55.8249 34.3958 55.7923 34.2087 55.7598 33.9971C55.7272 33.7855 55.7272 33.5658 55.7598 33.3379C55.8411 32.9635 55.89 32.5811 55.9062 32.1904C55.9225 31.8324 56.0039 31.4824 56.1504 31.1406C56.2969 30.8151 56.3864 30.457 56.4189 30.0664C56.4515 29.6758 56.541 29.3177 56.6875 28.9922C56.8991 28.6667 56.9886 28.4876 56.9561 28.4551C56.9398 28.4388 56.9479 28.39 56.9805 28.3086L57.2002 28.0156C57.249 27.9505 57.3223 27.8366 57.4199 27.6738L57.7129 26.9414C57.8594 26.6647 58.0059 26.4368 58.1523 26.2578C58.2988 26.0625 58.429 25.7858 58.543 25.4277C58.6243 25.1999 58.7139 25.0208 58.8115 24.8906C58.8766 24.8092 58.9336 24.7279 58.9824 24.6465C59.0475 24.5488 59.1126 24.4512 59.1777 24.3535C59.2591 24.1908 59.3405 23.9873 59.4219 23.7432C59.4544 23.6292 59.487 23.5234 59.5195 23.4258C59.5684 23.3118 59.6172 23.1979 59.666 23.084C59.7637 22.8236 59.8857 22.5632 60.0322 22.3027C60.1787 22.0423 60.3333 21.7819 60.4961 21.5215C60.6263 21.2611 60.7402 21.0658 60.8379 20.9355C60.9355 20.8053 61.1309 20.724 61.4238 20.6914C61.5703 20.6589 61.7168 20.667 61.8633 20.7158C62.0423 20.7646 62.2051 20.7565 62.3516 20.6914C62.7747 20.4961 63.0677 20.3984 63.2305 20.3984C63.3932 20.3984 63.5072 20.3496 63.5723 20.252C63.9141 20.2682 64.1745 20.3822 64.3535 20.5938C64.5326 20.7891 64.7279 20.9844 64.9395 21.1797C64.7441 22.1237 64.5244 22.848 64.2803 23.3525C64.0361 23.8571 63.7676 24.3861 63.4746 24.9395C63.3118 25.1999 63.1491 25.4928 62.9863 25.8184C62.8236 26.1439 62.6771 26.4368 62.5469 26.6973C62.3841 27.0553 62.2132 27.3727 62.0342 27.6494C61.8226 27.9749 61.668 28.2923 61.5703 28.6016L61.3506 29.0654C61.2529 29.2607 61.1797 29.4154 61.1309 29.5293C61.0983 29.6432 61.0576 29.7572 61.0088 29.8711C60.9762 29.9688 60.9274 30.0583 60.8623 30.1396C60.7972 30.221 60.7402 30.3105 60.6914 30.4082C60.6426 30.4896 60.5938 30.571 60.5449 30.6523C60.4473 30.8477 60.3496 31.043 60.252 31.2383C60.1543 31.4336 60.0729 31.6452 60.0078 31.873C59.8451 32.2311 59.7474 32.4671 59.7148 32.5811C59.6986 32.6136 59.6823 32.6543 59.666 32.7031C59.6497 32.7357 59.6335 32.7682 59.6172 32.8008C59.5521 33.1589 59.4544 33.4518 59.3242 33.6797C59.194 33.9076 59.2428 34.0703 59.4707 34.168ZM72.9473 30.9941C73.2077 30.8314 73.4193 30.6198 73.582 30.3594C73.6634 30.2292 73.7529 30.099 73.8506 29.9688C73.9482 29.8385 74.054 29.7083 74.168 29.5781C74.5911 29.0898 75.0469 28.6829 75.5352 28.3574C75.763 28.0156 76.0479 27.7633 76.3896 27.6006C76.7314 27.4215 77 27.153 77.1953 26.7949C77.2441 26.7298 77.3011 26.6322 77.3662 26.502C77.4313 26.3717 77.4883 26.2741 77.5371 26.209C78.1556 25.3464 78.8229 24.6302 79.5391 24.0605C79.6367 23.9792 79.7344 23.8978 79.832 23.8164C79.9297 23.735 80.0192 23.6536 80.1006 23.5723C80.2308 23.4421 80.4505 23.2793 80.7598 23.084C80.9062 23.0026 81.0527 22.9131 81.1992 22.8154C81.3457 22.7015 81.484 22.5794 81.6143 22.4492C81.8747 22.1888 82.1758 21.9935 82.5176 21.8633C82.7292 21.7656 82.9408 21.6924 83.1523 21.6436C83.25 21.611 83.3477 21.5866 83.4453 21.5703C83.5592 21.5378 83.6732 21.5052 83.7871 21.4727C84.015 21.4076 84.2184 21.3506 84.3975 21.3018C84.5765 21.2529 84.7799 21.2611 85.0078 21.3262C85.5286 21.5378 85.9193 21.9772 86.1797 22.6445C86.2773 22.8887 86.2204 23.4014 86.0088 24.1826C85.8135 24.9639 85.5775 25.7777 85.3008 26.624C85.0241 27.4541 84.8288 28.097 84.7148 28.5527C84.6497 28.7969 84.6335 28.9352 84.666 28.9678C84.6986 29.0003 84.7148 29.041 84.7148 29.0898C84.6497 29.2526 84.6009 29.3991 84.5684 29.5293C84.5358 29.6595 84.5033 29.806 84.4707 29.9688C84.4056 30.2292 84.3568 30.5791 84.3242 31.0186C84.2917 31.458 84.3079 31.8079 84.373 32.0684C84.6986 32.0521 84.8857 32.0195 84.9346 31.9707C84.9671 31.9382 85.0078 31.9219 85.0566 31.9219C85.1868 31.8893 85.2926 31.8812 85.374 31.8975C85.4554 31.9137 85.5612 31.9056 85.6914 31.873C86.3587 31.694 86.9609 31.3359 87.498 30.7988C87.791 30.6686 88.0677 30.5384 88.3281 30.4082C88.6048 30.278 88.8652 30.1478 89.1094 30.0176C89.5651 29.6921 89.9313 29.4561 90.208 29.3096C90.4847 29.1631 90.8997 28.9596 91.4531 28.6992C91.6647 28.4551 91.9495 28.2516 92.3076 28.0889C92.6331 27.9424 92.9505 27.7389 93.2598 27.4785C93.3574 27.3809 93.4388 27.2913 93.5039 27.21C93.6016 27.0798 93.6992 27.0553 93.7969 27.1367C93.9596 27.2995 94.0654 27.4704 94.1143 27.6494C94.1631 27.8285 94.1712 27.9505 94.1387 28.0156C93.8945 28.2598 93.7562 28.4551 93.7236 28.6016C93.6911 28.748 93.6504 28.8457 93.6016 28.8945C93.4388 29.0573 93.1947 29.2038 92.8691 29.334C92.5924 29.4479 92.4215 29.5537 92.3564 29.6514C92.2913 29.749 92.2344 29.8223 92.1855 29.8711C92.0879 29.9688 91.9984 30.042 91.917 30.0908C91.8356 30.1396 91.7461 30.2129 91.6484 30.3105C91.5833 30.4082 91.4938 30.4652 91.3799 30.4814L91.0625 30.5547C90.8672 30.7174 90.7044 30.8639 90.5742 30.9941C90.444 31.1243 90.2975 31.2708 90.1348 31.4336C89.8906 31.6777 89.7279 31.8649 89.6465 31.9951C89.5814 32.109 89.4023 32.2637 89.1094 32.459L88.1328 33.0449C87.6771 33.2728 87.2214 33.5495 86.7656 33.875C86.3099 34.2005 85.8542 34.526 85.3984 34.8516C85.1055 35.0306 84.7718 35.2015 84.3975 35.3643C84.0557 35.5107 83.7383 35.6816 83.4453 35.877C83.2988 35.877 83.2093 35.8688 83.1768 35.8525C83.1279 35.82 83.0384 35.8444 82.9082 35.9258C82.7454 35.8444 82.5827 35.8363 82.4199 35.9014C82.2409 35.9827 82.0781 35.9909 81.9316 35.9258C81.7689 35.7956 81.6305 35.6898 81.5166 35.6084C81.4189 35.527 81.3376 35.4701 81.2725 35.4375C81.1748 35.3724 81.0853 35.291 81.0039 35.1934C80.9388 35.0306 80.9144 34.8516 80.9307 34.6562C80.9469 34.4609 80.9062 34.2982 80.8086 34.168C80.8086 33.4518 80.833 32.7682 80.8818 32.1172C80.9307 31.4661 81.0365 30.7826 81.1992 30.0664C81.2318 29.8385 81.3132 29.4479 81.4434 28.8945C81.5736 28.3249 81.6794 27.7796 81.7607 27.2588C81.8421 26.738 81.8177 26.4368 81.6875 26.3555C81.3294 26.5508 80.9632 26.8438 80.5889 27.2344C80.4098 27.4297 80.2308 27.6087 80.0518 27.7715C79.8727 27.9342 79.7018 28.0807 79.5391 28.2109L78.7822 28.748C78.6683 28.8294 78.5462 28.9189 78.416 29.0166C78.2858 29.098 78.1556 29.1875 78.0254 29.2852C77.7975 29.4479 77.6022 29.6107 77.4395 29.7734C77.2767 29.9362 77.0977 30.1315 76.9023 30.3594C76.7884 30.4733 76.6745 30.5872 76.5605 30.7012C76.4629 30.7988 76.3652 30.9046 76.2676 31.0186C76.0723 31.2301 75.8444 31.4336 75.584 31.6289C75.4212 31.7917 75.2992 31.8975 75.2178 31.9463C75.1364 31.9951 75.0306 32.0846 74.9004 32.2148L74.4365 32.6787C74.29 32.8252 74.1029 32.9473 73.875 33.0449C73.3542 33.7448 72.7682 34.4202 72.1172 35.0713C71.4824 35.7223 70.9779 36.3815 70.6035 37.0488C70.2129 37.3743 69.7979 37.6592 69.3584 37.9033C68.9189 38.1475 68.39 38.1719 67.7715 37.9766C67.446 37.7812 67.2344 37.6185 67.1367 37.4883C67.0391 37.3743 66.9251 37.2767 66.7949 37.1953C66.8275 36.8372 66.86 36.4954 66.8926 36.1699C66.9251 35.8444 67.0228 35.5026 67.1855 35.1445L67.4785 34.6562C67.6413 34.3796 67.7471 34.054 67.7959 33.6797C67.8447 33.2891 67.9505 32.9473 68.1133 32.6543C68.3086 32.3288 68.4307 32.0602 68.4795 31.8486C68.5283 31.6533 68.6016 31.4661 68.6992 31.2871C68.7806 31.0918 68.8701 30.9372 68.9678 30.8232C69.0654 30.7093 69.1549 30.5547 69.2363 30.3594C69.3177 30.1803 69.4316 29.9932 69.5781 29.7979C69.7246 29.6025 69.8385 29.4154 69.9199 29.2363C70.1152 28.5365 70.3757 27.8203 70.7012 27.0879C70.7663 26.86 70.8314 26.6403 70.8965 26.4287C70.9616 26.2171 71.043 26.0137 71.1406 25.8184C71.222 25.6393 71.3034 25.4603 71.3848 25.2812C71.4661 25.1022 71.5475 24.9313 71.6289 24.7686C71.7103 24.5895 71.7917 24.4186 71.873 24.2559C71.9544 24.0768 72.0358 23.8978 72.1172 23.7188C72.2148 23.5234 72.3044 23.3525 72.3857 23.2061C72.4671 23.0596 72.5729 22.9049 72.7031 22.7422C72.752 22.6608 72.8008 22.5794 72.8496 22.498C72.8984 22.4167 72.9391 22.3353 72.9717 22.2539C73.0042 22.1725 73.0449 22.0911 73.0938 22.0098C73.1426 21.9284 73.1914 21.847 73.2402 21.7656C73.2891 21.6842 73.3379 21.6029 73.3867 21.5215C73.4355 21.4238 73.4762 21.318 73.5088 21.2041C73.5739 20.9925 73.696 20.7891 73.875 20.5938C73.9889 20.4635 74.0866 20.3415 74.168 20.2275C74.2656 20.0973 74.347 19.9753 74.4121 19.8613C74.526 19.6497 74.7376 19.5033 75.0469 19.4219C75.3236 19.5521 75.6084 19.5033 75.9014 19.2754C76.2106 19.0312 76.4629 19.0475 76.6582 19.3242C77.1139 19.6172 77.4232 19.8451 77.5859 20.0078C77.7812 20.1868 77.9115 20.3659 77.9766 20.5449C78.1393 20.8379 78.1556 21.139 78.0254 21.4482C77.8952 21.7575 77.6673 22.026 77.3418 22.2539C77.2279 22.7585 77 23.2793 76.6582 23.8164C76.4954 24.0605 76.3408 24.3047 76.1943 24.5488C76.0479 24.7767 75.9095 25.0046 75.7793 25.2324L75.3887 26.209C75.1934 26.6647 74.9899 27.1204 74.7783 27.5762C74.5667 28.0319 74.3307 28.4714 74.0703 28.8945C73.8587 29.334 73.696 29.6188 73.582 29.749C73.4844 29.8792 73.3949 30.0094 73.3135 30.1396C73.2484 30.2536 73.1263 30.5384 72.9473 30.9941ZM90.7695 26.209C90.9811 26.0951 91.2415 25.8509 91.5508 25.4766C91.86 25.0859 92.1611 24.7116 92.4541 24.3535C92.7471 23.9792 92.9668 23.7676 93.1133 23.7188C93.2109 23.556 93.3005 23.4176 93.3818 23.3037C93.4632 23.1898 93.5853 23.084 93.748 22.9863C94.0085 22.5143 94.3503 22.1156 94.7734 21.79C95.2129 21.4482 95.6198 21.082 95.9941 20.6914C96.3034 20.5612 96.6126 20.4147 96.9219 20.252C97.2474 20.0892 97.5648 19.902 97.874 19.6904C98.5088 19.2673 99.2168 19.0475 99.998 19.0312C100.356 19.194 100.706 19.2428 101.048 19.1777C101.373 19.1126 101.691 19.194 102 19.4219C102.179 19.7311 102.326 19.9183 102.439 19.9834C102.553 20.0485 102.651 20.138 102.732 20.252C102.863 20.6589 102.96 20.9274 103.025 21.0576C103.107 21.1878 103.156 21.3262 103.172 21.4727C103.188 21.7168 103.204 21.9284 103.221 22.1074C103.237 22.2702 103.253 22.4085 103.27 22.5225C103.286 22.734 103.286 22.9375 103.27 23.1328C103.172 23.9629 103.009 24.793 102.781 25.623C102.749 25.7207 102.716 25.8184 102.684 25.916C102.651 26.0137 102.618 26.1195 102.586 26.2334C102.521 26.445 102.439 26.6322 102.342 26.7949C102.098 27.1042 101.927 27.3564 101.829 27.5518C101.683 27.8122 101.577 27.9831 101.512 28.0645C101.316 28.2598 101.129 28.4388 100.95 28.6016C100.787 28.7643 100.633 28.9108 100.486 29.041C100.34 29.1224 100.193 29.2119 100.047 29.3096C99.9004 29.391 99.7539 29.4805 99.6074 29.5781C99.3307 29.7572 99.0052 29.8874 98.6309 29.9688L98.1914 30.2373C98.0449 30.335 97.8822 30.3919 97.7031 30.4082C97.4102 30.6198 97.0846 30.7907 96.7266 30.9209C96.5638 30.986 96.3929 31.0511 96.2139 31.1162C96.0511 31.1813 95.8802 31.2546 95.7012 31.3359C95.457 31.4336 95.2454 31.5475 95.0664 31.6777C94.8874 31.8079 94.6595 31.9382 94.3828 32.0684C94.2363 32.1172 94.0003 32.1742 93.6748 32.2393C93.3656 32.2881 93.1458 32.3451 93.0156 32.4102C93.1784 32.7357 93.2435 33.1426 93.2109 33.6309C93.1947 34.0866 93.276 34.4935 93.4551 34.8516C93.8783 34.9492 94.3421 35.0225 94.8467 35.0713C95.3512 35.1201 95.8314 35.112 96.2871 35.0469C96.3685 35.0306 96.4499 35.0062 96.5312 34.9736C96.6289 34.9411 96.7266 34.9085 96.8242 34.876C96.9219 34.8434 97.0195 34.8109 97.1172 34.7783C97.2148 34.7458 97.3125 34.7214 97.4102 34.7051C97.7682 34.64 98.1182 34.5586 98.46 34.4609C98.8018 34.3633 99.1029 34.2331 99.3633 34.0703C100.307 33.7448 101.219 33.3053 102.098 32.752C102.977 32.1986 103.742 31.5964 104.393 30.9453C104.783 30.6849 105.215 30.3268 105.687 29.8711C106.159 29.4154 106.525 28.9922 106.785 28.6016C107.273 28.0807 107.705 27.6738 108.079 27.3809C108.453 27.0879 108.803 26.9577 109.129 26.9902C109.389 26.9902 109.642 27.1449 109.886 27.4541C110.13 27.7633 110.105 28.097 109.812 28.4551C109.503 28.6504 109.161 28.9434 108.787 29.334C108.429 29.7246 108.055 30.0013 107.664 30.1641C107.387 30.3431 107.021 30.7012 106.565 31.2383C106.126 31.7428 105.76 32.1335 105.467 32.4102C105.402 32.4753 105.328 32.5485 105.247 32.6299C105.166 32.7113 105.068 32.7926 104.954 32.874C104.743 33.0368 104.572 33.2077 104.441 33.3867C103.937 33.8099 103.449 34.168 102.977 34.4609C102.798 34.3958 102.651 34.4284 102.537 34.5586C102.391 34.7376 102.26 34.8678 102.146 34.9492C102.098 34.9818 102.049 35.0143 102 35.0469C101.951 35.0794 101.894 35.112 101.829 35.1445C101.764 35.1771 101.707 35.2096 101.658 35.2422C101.609 35.2747 101.561 35.3073 101.512 35.3398C101.251 35.5677 100.966 35.7956 100.657 36.0234C100.348 36.2513 100.031 36.4466 99.7051 36.6094C99.3796 36.8047 99.054 36.9837 98.7285 37.1465C98.403 37.3255 98.0775 37.4801 97.752 37.6104C97.4264 37.7406 97.1009 37.8952 96.7754 38.0742C96.4661 38.2533 96.1569 38.4486 95.8477 38.6602L95.3105 38.7334C95.2292 38.7497 95.1478 38.7578 95.0664 38.7578C94.985 38.7741 94.9036 38.7904 94.8223 38.8066C94.6432 38.8717 94.4723 38.9043 94.3096 38.9043C94.1468 38.9043 93.9434 38.8717 93.6992 38.8066C92.625 38.5137 91.7461 37.9928 91.0625 37.2441C90.9648 37.1465 90.859 37.057 90.7451 36.9756C90.6475 36.8779 90.5417 36.7884 90.4277 36.707C90.1673 36.5117 89.9883 36.3327 89.8906 36.1699C89.7441 35.9258 89.5977 35.5433 89.4512 35.0225C89.2884 34.5016 89.1501 33.9727 89.0361 33.4355C88.9222 32.8822 88.8652 32.459 88.8652 32.166C88.9629 31.9707 89.0687 31.637 89.1826 31.165C89.2965 30.6768 89.3942 30.1966 89.4756 29.7246C89.557 29.2363 89.5977 28.8945 89.5977 28.6992C89.6628 28.6341 89.793 28.4225 89.9883 28.0645C90.1673 27.6901 90.3382 27.3158 90.501 26.9414C90.68 26.5508 90.7695 26.3066 90.7695 26.209ZM98.6309 23.084C98.403 23.377 98.1751 23.6536 97.9473 23.9141C97.7194 24.1745 97.459 24.4186 97.166 24.6465C96.9707 25.0046 96.7428 25.3301 96.4824 25.623C96.222 25.916 95.9616 26.1927 95.7012 26.4531C95.571 26.7135 95.4245 26.917 95.2617 27.0635C95.099 27.21 94.9199 27.3646 94.7246 27.5273C94.513 27.8854 94.2526 28.2272 93.9434 28.5527C93.6341 28.8783 93.569 29.2526 93.748 29.6758C94.1061 29.7409 94.4642 29.6921 94.8223 29.5293C95.1803 29.3665 95.4896 29.2201 95.75 29.0898C95.8802 29.0085 96.0104 28.9352 96.1406 28.8701C96.2871 28.805 96.4255 28.7399 96.5557 28.6748C96.6859 28.6097 96.8161 28.5446 96.9463 28.4795C97.0765 28.4144 97.1986 28.3411 97.3125 28.2598L98.582 26.9902C98.7773 26.8112 98.9727 26.5996 99.168 26.3555C99.2493 26.2415 99.3307 26.1276 99.4121 26.0137C99.5098 25.8835 99.6074 25.7533 99.7051 25.623C99.7865 25.265 99.9167 24.9313 100.096 24.6221C100.291 24.2965 100.372 23.9629 100.34 23.6211C100.324 23.4746 100.267 23.3037 100.169 23.1084C100.071 22.9131 100.014 22.7585 99.998 22.6445C99.6562 22.6445 99.404 22.7015 99.2412 22.8154C99.1598 22.8805 99.0622 22.9375 98.9482 22.9863C98.8506 23.0189 98.7448 23.0514 98.6309 23.084Z" fill="#9A6649"/>
</svg>
